<?xml version="1.0" encoding="UTF-8" standalone="no"?>
<!DOCTYPE svg PUBLIC "-//W3C//DTD SVG 1.1//EN" "http://www.w3.org/Graphics/SVG/1.1/DTD/svg11.dtd">
<svg version="1.1" xmlns="http://www.w3.org/2000/svg" xmlns:xlink="http://www.w3.org/1999/xlink" preserveAspectRatio="xMidYMid meet" viewBox="0 0 4961 2756.25" width="4096" height="2756.25"><defs><path d="M0 0L4961 0L4961 2756.25L0 2756.25L0 0Z" id="ehXrdKWVf"></path><path d="M2628.01 1132.5C2682.2 1132.5 2726.13 1176.43 2726.13 1230.62C2726.13 1309.24 2726.13 1447.01 2726.13 1525.63C2726.13 1579.82 2682.2 1623.75 2628.01 1623.75C2549.38 1623.75 2411.62 1623.75 2332.99 1623.75C2278.8 1623.75 2234.87 1579.82 2234.87 1525.63C2234.87 1447.01 2234.87 1309.24 2234.87 1230.62C2234.87 1176.43 2278.8 1132.5 2332.99 1132.5C2411.62 1132.5 2549.38 1132.5 2628.01 1132.5Z" id="a2OCWz8shL"></path><path d="M2568.86 1337.39L2568.83 1336.87L2568.78 1336.35L2568.72 1335.84L2568.64 1335.33L2568.55 1334.82L2568.45 1334.31L2568.34 1333.81L2568.21 1333.32L2568.07 1332.83L2567.92 1332.34L2567.75 1331.86L2567.57 1331.38L2567.38 1330.9L2567.18 1330.44L2566.97 1329.98L2566.74 1329.52L2566.5 1329.07L2566.26 1328.63L2566 1328.19L2565.72 1327.76L2565.44 1327.34L2565.15 1326.92L2564.84 1326.51L2564.53 1326.11L2564.2 1325.72L2563.87 1325.34L2563.52 1324.96L2563.17 1324.59L2562.8 1324.24L2562.42 1323.89L2562.04 1323.55L2561.64 1323.22L2561.24 1322.9L2560.82 1322.59L2560.4 1322.28L2559.96 1321.99L2559.52 1321.72L2559.07 1321.45L2558.47 1321.1L2557.69 1320.66L2556.75 1320.12L2555.66 1319.5L2554.43 1318.79L2553.05 1318.01L2551.56 1317.15L2549.94 1316.23L2548.22 1315.24L2546.4 1314.2L2544.48 1313.11L2542.49 1311.97L2540.42 1310.79L2538.29 1309.57L2536.11 1308.33L2533.88 1307.05L2531.62 1305.76L2529.32 1304.45L2527.01 1303.13L2524.7 1301.8L2522.38 1300.48L2520.07 1299.16L2517.78 1297.85L2515.51 1296.55L2513.28 1295.28L2511.1 1294.03L2508.97 1292.82L2506.9 1291.64L2504.91 1290.5L2503 1289.4L2501.17 1288.36L2499.45 1287.38L2497.84 1286.45L2496.34 1285.6L2494.97 1284.82L2493.73 1284.11L2492.64 1283.49L2491.7 1282.95L2490.93 1282.51L2490.32 1282.16L2489.86 1281.9L2489.4 1281.66L2488.93 1281.43L2488.46 1281.21L2487.98 1281.01L2487.5 1280.82L2487.02 1280.64L2486.53 1280.48L2486.04 1280.32L2485.54 1280.19L2485.05 1280.06L2484.55 1279.95L2484.05 1279.85L2483.54 1279.77L2483.04 1279.69L2482.53 1279.63L2482.02 1279.59L2481.52 1279.56L2481.01 1279.54L2480.5 1279.53L2479.99 1279.54L2479.48 1279.56L2478.98 1279.59L2478.47 1279.63L2477.96 1279.69L2477.46 1279.77L2476.95 1279.85L2476.45 1279.95L2475.95 1280.06L2475.46 1280.19L2474.96 1280.32L2474.47 1280.48L2473.98 1280.64L2473.5 1280.82L2473.02 1281.01L2472.54 1281.21L2472.07 1281.43L2471.6 1281.66L2471.14 1281.9L2470.68 1282.16L2470.07 1282.51L2469.3 1282.95L2468.36 1283.49L2467.27 1284.11L2466.03 1284.82L2464.66 1285.6L2463.16 1286.45L2461.55 1287.38L2459.83 1288.36L2458 1289.4L2456.09 1290.5L2454.1 1291.64L2452.03 1292.82L2449.9 1294.03L2447.72 1295.28L2445.49 1296.55L2443.22 1297.85L2440.93 1299.16L2438.62 1300.48L2436.3 1301.8L2433.99 1303.13L2431.68 1304.45L2429.38 1305.76L2427.12 1307.05L2424.89 1308.33L2422.71 1309.57L2420.58 1310.79L2418.51 1311.97L2416.52 1313.11L2414.6 1314.2L2412.78 1315.24L2411.06 1316.23L2409.44 1317.15L2407.95 1318.01L2406.57 1318.79L2405.34 1319.5L2404.25 1320.12L2403.31 1320.66L2402.53 1321.1L2401.93 1321.45L2401.48 1321.72L2401.04 1321.99L2400.6 1322.28L2400.18 1322.59L2399.76 1322.9L2399.36 1323.22L2398.96 1323.55L2398.58 1323.89L2398.2 1324.24L2397.83 1324.59L2397.48 1324.96L2397.13 1325.34L2396.8 1325.72L2396.47 1326.11L2396.16 1326.51L2395.85 1326.92L2395.56 1327.34L2395.28 1327.76L2395 1328.19L2394.74 1328.63L2394.5 1329.07L2394.26 1329.52L2394.03 1329.98L2393.82 1330.44L2393.62 1330.9L2393.43 1331.38L2393.25 1331.86L2393.08 1332.34L2392.93 1332.83L2392.79 1333.32L2392.66 1333.81L2392.55 1334.31L2392.45 1334.82L2392.36 1335.33L2392.28 1335.84L2392.22 1336.35L2392.17 1336.87L2392.14 1337.39L2392.12 1337.91L2392.11 1338.44L2392.11 1339.13L2392.11 1340.01L2392.11 1341.09L2392.11 1342.33L2392.11 1343.75L2392.11 1345.31L2392.11 1347.03L2392.11 1348.87L2392.11 1350.84L2392.11 1352.92L2392.11 1355.11L2392.11 1357.39L2392.11 1359.75L2392.11 1362.18L2392.11 1364.68L2392.11 1367.23L2392.11 1369.81L2392.11 1372.43L2392.11 1375.07L2392.11 1377.72L2392.11 1380.37L2392.11 1383.01L2392.11 1385.63L2392.11 1388.22L2392.11 1390.77L2392.11 1393.26L2392.11 1395.69L2392.11 1398.06L2392.11 1400.33L2392.11 1402.52L2392.11 1404.6L2392.11 1406.57L2392.11 1408.42L2392.11 1410.13L2392.11 1411.7L2392.11 1413.11L2392.11 1414.36L2392.11 1415.43L2392.11 1416.32L2392.11 1417.01L2392.12 1417.53L2392.14 1418.05L2392.17 1418.57L2392.22 1419.09L2392.28 1419.61L2392.36 1420.12L2392.45 1420.63L2392.55 1421.13L2392.66 1421.63L2392.79 1422.13L2392.93 1422.62L2393.08 1423.11L2393.25 1423.59L2393.43 1424.07L2393.62 1424.54L2393.82 1425.01L2394.03 1425.47L2394.26 1425.92L2394.5 1426.37L2394.74 1426.82L2395 1427.25L2395.28 1427.68L2395.56 1428.11L2395.85 1428.52L2396.16 1428.93L2396.47 1429.33L2396.8 1429.72L2397.13 1430.11L2397.48 1430.48L2397.83 1430.85L2398.2 1431.21L2398.58 1431.56L2398.96 1431.9L2399.36 1432.23L2399.76 1432.55L2400.18 1432.86L2400.6 1433.16L2401.04 1433.45L2401.48 1433.73L2401.93 1434L2402.53 1434.34L2403.31 1434.79L2404.25 1435.32L2405.34 1435.95L2406.57 1436.65L2407.95 1437.44L2409.44 1438.29L2411.06 1439.22L2412.78 1440.2L2414.6 1441.24L2416.52 1442.33L2418.51 1443.47L2420.58 1444.65L2422.71 1445.87L2424.89 1447.12L2427.12 1448.39L2429.38 1449.69L2431.68 1451L2433.99 1452.32L2436.3 1453.64L2438.62 1454.97L2440.93 1456.29L2443.22 1457.6L2445.49 1458.89L2447.72 1460.16L2449.9 1461.41L2452.03 1462.63L2454.1 1463.81L2456.09 1464.95L2458 1466.04L2459.83 1467.08L2461.55 1468.07L2463.16 1468.99L2464.66 1469.85L2466.03 1470.63L2467.27 1471.34L2468.36 1471.96L2469.3 1472.5L2470.07 1472.94L2470.68 1473.28L2471.14 1473.54L2471.6 1473.78L2472.07 1474.01L2472.54 1474.23L2473.02 1474.44L2473.5 1474.63L2473.98 1474.8L2474.47 1474.97L2474.96 1475.12L2475.46 1475.26L2475.95 1475.38L2476.45 1475.49L2476.95 1475.59L2477.46 1475.68L2477.96 1475.75L2478.47 1475.81L2478.98 1475.86L2479.48 1475.89L2479.99 1475.91L2480.5 1475.92L2481.01 1475.91L2481.52 1475.89L2482.02 1475.86L2482.53 1475.81L2483.04 1475.75L2483.54 1475.68L2484.05 1475.59L2484.55 1475.49L2485.05 1475.38L2485.54 1475.26L2486.04 1475.12L2486.53 1474.97L2487.02 1474.8L2487.5 1474.63L2487.98 1474.44L2488.46 1474.23L2488.93 1474.01L2489.4 1473.78L2489.86 1473.54L2490.32 1473.28L2490.93 1472.94L2491.7 1472.5L2492.64 1471.96L2493.73 1471.34L2494.97 1470.63L2496.34 1469.85L2497.84 1468.99L2499.45 1468.07L2501.17 1467.08L2503 1466.04L2504.91 1464.95L2506.9 1463.81L2508.97 1462.63L2511.1 1461.41L2513.28 1460.16L2515.51 1458.89L2517.78 1457.6L2520.07 1456.29L2522.38 1454.97L2524.7 1453.64L2527.01 1452.32L2529.32 1451L2531.62 1449.69L2533.88 1448.39L2536.11 1447.12L2538.29 1445.87L2540.42 1444.65L2542.49 1443.47L2544.48 1442.33L2546.4 1441.24L2548.22 1440.2L2549.94 1439.22L2551.56 1438.29L2553.05 1437.44L2554.43 1436.65L2555.66 1435.95L2556.75 1435.32L2557.69 1434.79L2558.47 1434.34L2559.07 1434L2559.52 1433.73L2559.96 1433.45L2560.4 1433.16L2560.82 1432.86L2561.24 1432.55L2561.64 1432.23L2562.04 1431.9L2562.42 1431.56L2562.8 1431.21L2563.17 1430.85L2563.52 1430.48L2563.87 1430.11L2564.2 1429.72L2564.53 1429.33L2564.84 1428.93L2565.15 1428.52L2565.44 1428.11L2565.72 1427.68L2566 1427.25L2566.26 1426.82L2566.5 1426.37L2566.74 1425.92L2566.97 1425.47L2567.18 1425.01L2567.38 1424.54L2567.57 1424.07L2567.75 1423.59L2567.92 1423.11L2568.07 1422.62L2568.21 1422.13L2568.34 1421.63L2568.45 1421.13L2568.55 1420.63L2568.64 1420.12L2568.72 1419.61L2568.78 1419.09L2568.83 1418.57L2568.86 1418.05L2568.88 1417.53L2568.89 1417.01L2568.89 1415.76L2568.89 1414.37L2568.89 1412.85L2568.89 1411.2L2568.89 1409.44L2568.89 1407.58L2568.89 1405.61L2568.89 1403.56L2568.89 1401.42L2568.89 1399.21L2568.89 1396.93L2568.89 1394.59L2568.89 1392.2L2568.89 1389.78L2568.89 1387.31L2568.89 1384.83L2568.89 1382.32L2568.89 1379.8L2568.89 1377.29L2568.89 1374.78L2568.89 1372.28L2568.89 1369.81L2568.89 1367.37L2568.89 1364.96L2568.89 1362.61L2568.89 1360.31L2568.89 1358.07L2568.89 1355.9L2568.89 1353.82L2568.89 1351.82L2568.89 1349.92L2568.89 1348.12L2568.89 1346.43L2568.89 1344.86L2568.89 1343.42L2568.89 1342.12L2568.89 1340.96L2568.89 1339.96L2568.89 1339.11L2568.89 1338.44L2568.88 1337.91L2568.88 1337.91L2568.86 1337.39ZM2568.89 1417.01L2568.89 1417.01L2568.89 1417.01Z" id="c2CoQR9N4z"></path><path d="M2436.3 1301.21L2480.5 1326.75L2524.7 1301.21" id="a1IlGVsy4i"></path><path d="M2436.3 1454.23L2436.3 1403.26L2392.11 1377.72" id="b4toHLc0vi"></path><path d="M2568.89 1377.72L2524.7 1403.26L2524.7 1454.23" id="aKTATDFiz"></path><path d="M2394.76 1328.22L2480.5 1377.82L2566.24 1328.22" id="b1opWyAGYk"></path><path d="M2480.5 1476.72L2480.5 1377.72" id="b6wWNPSjy"></path></defs><g><g><g><use xlink:href="#ehXrdKWVf" opacity="1" fill="#1B1E27" fill-opacity="1"></use></g><g><use xlink:href="#a2OCWz8shL" opacity="1" fill="#dea584" fill-opacity="1"></use></g><g><use xlink:href="#c2CoQR9N4z" opacity="1" fill="#000000" fill-opacity="0"></use><g><use xlink:href="#c2CoQR9N4z" opacity="1" fill-opacity="0" stroke="#1B1E27" stroke-width="10" stroke-opacity="1"></use></g></g><g><use xlink:href="#a1IlGVsy4i" opacity="1" fill="#000000" fill-opacity="0"></use><g><use xlink:href="#a1IlGVsy4i" opacity="1" fill-opacity="0" stroke="#1B1E27" stroke-width="10" stroke-opacity="1"></use></g></g><g><use xlink:href="#b4toHLc0vi" opacity="1" fill="#000000" fill-opacity="0"></use><g><use xlink:href="#b4toHLc0vi" opacity="1" fill-opacity="0" stroke="#1B1E27" stroke-width="10" stroke-opacity="1"></use></g></g><g><use xlink:href="#aKTATDFiz" opacity="1" fill="#000000" fill-opacity="0"></use><g><use xlink:href="#aKTATDFiz" opacity="1" fill-opacity="0" stroke="#1B1E27" stroke-width="10" stroke-opacity="1"></use></g></g><g><use xlink:href="#b1opWyAGYk" opacity="1" fill="#000000" fill-opacity="0"></use><g><use xlink:href="#b1opWyAGYk" opacity="1" fill-opacity="0" stroke="#1B1E27" stroke-width="10" stroke-opacity="1"></use></g></g><g><use xlink:href="#b6wWNPSjy" opacity="1" fill="#000000" fill-opacity="0"></use><g><use xlink:href="#b6wWNPSjy" opacity="1" fill-opacity="0" stroke="#1B1E27" stroke-width="10" stroke-opacity="1"></use></g></g></g></g></svg>